<svg width="17" height="18" viewBox="0 0 17 18" fill="none" xmlns="http://www.w3.org/2000/svg">
<path fill-rule="evenodd" clip-rule="evenodd" d="M8.24419 0C6.51669 0 5.15585 -1.24176e-08 4.09252 0.144167C3.00085 0.2925 2.13002 0.604167 1.44585 1.29583C0.76252 1.98667 0.455854 2.86417 0.309187 3.96417C0.166687 5.03833 0.166687 6.4125 0.166687 8.15917V12.4075C0.166687 13.6642 0.166687 14.6583 0.246687 15.4075C0.325854 16.1475 0.49502 16.815 0.98002 17.2617C1.36835 17.62 1.86002 17.845 2.38502 17.9058C3.04085 17.9808 3.65335 17.6675 4.25752 17.2392C4.86835 16.8075 5.60919 16.1517 6.54419 15.325L6.57419 15.2983C7.00752 14.915 7.30085 14.6567 7.54585 14.4767C7.78252 14.3042 7.92669 14.2417 8.04835 14.2167C8.20903 14.185 8.37434 14.185 8.53502 14.2167C8.65669 14.2417 8.80169 14.3042 9.03752 14.4767C9.28252 14.6558 9.57585 14.915 10.0092 15.2983L10.04 15.325C10.9742 16.1517 11.715 16.8075 12.3259 17.24C12.93 17.6675 13.5425 17.9808 14.1984 17.9058C14.7231 17.8455 15.2151 17.6199 15.6034 17.2617C16.0875 16.815 16.2575 16.1475 16.3367 15.4075C16.4167 14.6583 16.4167 13.6642 16.4167 12.4075V8.15917C16.4167 6.4125 16.4167 5.0375 16.2742 3.96417C16.1275 2.86417 15.8209 1.98667 15.1375 1.29583C14.4534 0.604167 13.5825 0.2925 12.4909 0.144167C11.4275 -1.24176e-08 10.0667 0 8.33919 0H8.24419ZM2.33335 2.175C2.74752 1.75667 3.31002 1.5125 4.26002 1.38333C5.22919 1.25167 6.50502 1.25 8.29085 1.25C10.0767 1.25 11.3525 1.25167 12.3217 1.38333C13.2717 1.5125 13.8342 1.75667 14.2484 2.175C14.6634 2.59417 14.9059 3.165 15.0342 4.12917C15.1642 5.11083 15.1659 6.40167 15.1659 8.20667V12.3675C15.1659 13.6725 15.165 14.6008 15.0934 15.2742C15.0184 15.9658 14.8825 16.225 14.7559 16.3425C14.5609 16.5217 14.3159 16.6342 14.0559 16.6633C13.8892 16.6825 13.6109 16.6183 13.0475 16.22C12.4992 15.8308 11.8084 15.2217 10.8367 14.3617L10.815 14.3425C10.4084 13.9833 10.0717 13.6858 9.77419 13.4675C9.46335 13.2408 9.15002 13.0658 8.78085 12.9917C8.45743 12.9265 8.12428 12.9265 7.80085 12.9917C7.43169 13.0667 7.11752 13.2408 6.80752 13.4683C6.51002 13.685 6.17335 13.9833 5.76669 14.3425L5.74502 14.3617C4.77335 15.2217 4.08252 15.8308 3.53419 16.22C2.97085 16.6183 2.69252 16.6825 2.52585 16.6633C2.2644 16.6333 2.01926 16.521 1.82585 16.3425C1.69919 16.225 1.56252 15.9658 1.48919 15.2742C1.41669 14.6 1.41585 13.6725 1.41585 12.3675V8.20583C1.41585 6.40167 1.41752 5.11083 1.54752 4.12917C1.67585 3.165 1.91835 2.59417 2.33335 2.175Z" fill="#555555"/>
<path d="M5.79169 3.33331C5.62593 3.33331 5.46696 3.39916 5.34975 3.51637C5.23254 3.63358 5.16669 3.79255 5.16669 3.95831C5.16669 4.12407 5.23254 4.28304 5.34975 4.40025C5.46696 4.51747 5.62593 4.58331 5.79169 4.58331H10.7917C10.9574 4.58331 11.1164 4.51747 11.2336 4.40025C11.3508 4.28304 11.4167 4.12407 11.4167 3.95831C11.4167 3.79255 11.3508 3.63358 11.2336 3.51637C11.1164 3.39916 10.9574 3.33331 10.7917 3.33331H5.79169Z" fill="#555555"/>
</svg>
