<svg width="20" height="21" viewBox="0 0 20 21" fill="none" xmlns="http://www.w3.org/2000/svg">
<path d="M12.7188 4.92312C13.4794 6.6 14.4125 8.6575 15.1125 9.475C15.25 9.1575 15.235 8.625 15.3913 7.325C15.5325 6.1525 16.5 6.04062 16.9157 6.12375C17.8344 6.31562 18.1138 7.24625 18.0832 7.58937C18.0344 8.13625 18.0319 8.1175 17.9319 9.44062C17.785 11.375 18.5319 12.8356 18.6007 14.4919C18.6007 17.6131 15.865 19.1469 13.9507 19.1469C12.4188 19.1469 10.8857 18.1669 10.3113 17.6769L7.43879 15.0531C7.08754 14.78 6.21816 13.8775 5.83691 13.3581C4.79691 11.9437 6.30066 10.9694 7.14566 11.2144C7.07941 11.1631 6.67817 10.5119 6.48629 10.1931C5.97067 9.1575 6.48629 8.46812 6.86754 8.27812C7.73191 7.84812 8.36754 8.33187 8.56754 8.59562C8.49066 8.46562 8.25066 7.93937 7.86379 6.97375C7.47691 6.00875 8.10004 5.4125 8.46004 5.235C9.24129 4.87312 9.98379 5.3325 10.1694 5.74312C10.2607 5.94375 10.7507 7.01812 10.9644 7.49125C10.8032 7.09875 10.5119 6.31812 10.4088 5.9575C10.2038 5.1075 10.6969 4.525 11.01 4.375C11.4444 4.16687 12.3513 4.1125 12.71 4.9025L12.7188 4.92312Z" fill="url(#paint0_radial_72_7455)"/>
<path d="M12.7191 4.92312C13.4797 6.6 14.4128 8.6575 15.1128 9.475C15.2503 9.1575 15.2353 8.625 15.3916 7.325C15.5328 6.1525 16.5003 6.04062 16.9159 6.12375C17.8347 6.31562 18.1141 7.24625 18.0834 7.58937C18.0347 8.13625 18.0322 8.1175 17.9322 9.44062C17.7853 11.375 18.5322 12.8356 18.6009 14.4919C18.6009 17.6131 15.8653 19.1469 13.9509 19.1469C12.4191 19.1469 10.8859 18.1669 10.3116 17.6769L7.43906 15.0531C7.08719 14.78 6.21844 13.8775 5.83656 13.3581C4.79719 11.9437 6.30094 10.9694 7.14594 11.2144C7.07969 11.1631 6.67844 10.5119 6.48656 10.1931C5.97094 9.1575 6.48656 8.46812 6.86781 8.27812C7.73219 7.84812 8.36781 8.33187 8.56781 8.59562C8.49094 8.46562 8.25094 7.93937 7.86406 6.97375C7.47719 6.00875 8.10031 5.4125 8.46031 5.235C9.24156 4.87312 9.98406 5.3325 10.1697 5.74312C10.2609 5.94375 10.7509 7.01812 10.9647 7.49125C10.8034 7.09875 10.5122 6.31812 10.4091 5.9575C10.2041 5.1075 10.6972 4.525 11.0097 4.375C11.4447 4.16687 12.3516 4.1125 12.7097 4.9025L12.7191 4.92312Z" fill="url(#paint1_radial_72_7455)"/>
<path d="M18.0833 7.58938C18.0345 8.13625 18.032 8.1175 17.932 9.44063C17.8802 10.1244 18.2514 12.6413 18.2514 12.6413C17.3483 12.9363 15.3914 12.5456 15.1133 9.475C15.2502 9.1575 15.2352 8.625 15.3914 7.325C15.5327 6.1525 16.5002 6.04063 16.9158 6.12375C17.8345 6.31563 18.1139 7.24625 18.0833 7.58938Z" fill="url(#paint2_radial_72_7455)"/>
<path d="M18.0833 7.58938C18.0345 8.13625 18.032 8.1175 17.932 9.44063C17.8802 10.1244 18.2514 12.6413 18.2514 12.6413C17.3483 12.9363 15.3914 12.5456 15.1133 9.475C15.2502 9.1575 15.2352 8.625 15.3914 7.325C15.5327 6.1525 16.5002 6.04063 16.9158 6.12375C17.8345 6.31563 18.1139 7.24625 18.0833 7.58938Z" fill="url(#paint3_radial_72_7455)"/>
<path d="M18.0833 7.58938C18.0345 8.13625 18.032 8.1175 17.932 9.44063C17.8802 10.1244 18.2514 12.6413 18.2514 12.6413C17.3483 12.9363 15.3914 12.5456 15.1133 9.475C15.2502 9.1575 15.2352 8.625 15.3914 7.325C15.5327 6.1525 16.5002 6.04063 16.9158 6.12375C17.8345 6.31563 18.1139 7.24625 18.0833 7.58938Z" fill="url(#paint4_radial_72_7455)"/>
<path d="M12.7188 4.92312C13.4794 6.6 14.4125 8.6575 15.1125 9.475C15.0031 10.41 14.1675 10.8575 13.4475 10.69C12.5394 10.4262 12.1944 9.78187 12.1944 9.78187C12.1944 9.78187 11.9569 9.41437 11.7256 9.01C11.4581 8.5425 11.5069 8.55312 11.0588 7.70687C10.9706 7.54062 10.5394 6.41312 10.4088 5.9575C10.2038 5.1075 10.6969 4.525 11.01 4.375C11.4444 4.16687 12.3513 4.1125 12.71 4.9025L12.7188 4.92312Z" fill="url(#paint5_radial_72_7455)"/>
<path d="M12.7188 4.92312C13.4794 6.6 14.4125 8.6575 15.1125 9.475C15.0031 10.41 14.1675 10.8575 13.4475 10.69C12.5394 10.4262 12.1944 9.78187 12.1944 9.78187C12.1944 9.78187 11.9569 9.41437 11.7256 9.01C11.4581 8.5425 11.5069 8.55312 11.0588 7.70687C10.9706 7.54062 10.5394 6.41312 10.4088 5.9575C10.2038 5.1075 10.6969 4.525 11.01 4.375C11.4444 4.16687 12.3513 4.1125 12.71 4.9025L12.7188 4.92312Z" fill="url(#paint6_linear_72_7455)"/>
<path d="M12.7188 4.92312C13.4794 6.6 14.4125 8.6575 15.1125 9.475C15.0031 10.41 14.1675 10.8575 13.4475 10.69C12.5394 10.4262 12.1944 9.78187 12.1944 9.78187C12.1944 9.78187 11.9569 9.41437 11.7256 9.01C11.4581 8.5425 11.5069 8.55312 11.0588 7.70687C10.9706 7.54062 10.5394 6.41312 10.4088 5.9575C10.2038 5.1075 10.6969 4.525 11.01 4.375C11.4444 4.16687 12.3513 4.1125 12.71 4.9025L12.7188 4.92312Z" fill="url(#paint7_radial_72_7455)"/>
<path d="M12.7188 4.92312C13.4794 6.6 14.4125 8.6575 15.1125 9.475C15.0031 10.41 14.1675 10.8575 13.4475 10.69C12.5394 10.4262 12.1944 9.78187 12.1944 9.78187C12.1944 9.78187 11.9569 9.41437 11.7256 9.01C11.4581 8.5425 11.5069 8.55312 11.0588 7.70687C10.9706 7.54062 10.5394 6.41312 10.4088 5.9575C10.2038 5.1075 10.6969 4.525 11.01 4.375C11.4444 4.16687 12.3513 4.1125 12.71 4.9025L12.7188 4.92312Z" fill="url(#paint8_radial_72_7455)"/>
<path d="M12.7188 4.92312C13.4794 6.6 14.4125 8.6575 15.1125 9.475C15.0031 10.41 14.1675 10.8575 13.4475 10.69C12.5394 10.4262 12.1944 9.78187 12.1944 9.78187C12.1944 9.78187 11.9569 9.41437 11.7256 9.01C11.4581 8.5425 11.5069 8.55312 11.0588 7.70687C10.9706 7.54062 10.5394 6.41312 10.4088 5.9575C10.2038 5.1075 10.6969 4.525 11.01 4.375C11.4444 4.16687 12.3513 4.1125 12.71 4.9025L12.7188 4.92312Z" fill="url(#paint9_linear_72_7455)"/>
<path d="M10.1698 5.74313C10.2923 6.01313 11.1373 7.86313 11.0592 7.70688C11.286 8.21938 11.9904 9.46938 12.1948 9.81125C12.6473 10.565 12.1367 11.1919 11.8073 11.3831C10.8592 11.9331 10.3148 11.2319 10.3148 11.2319C9.81478 10.4994 9.39728 9.88938 8.57165 8.59063C8.3729 8.21563 8.0104 7.37938 7.86415 6.97375C7.50353 5.9725 8.1004 5.4125 8.4604 5.235C9.24165 4.87313 9.98415 5.3325 10.1698 5.74313Z" fill="url(#paint10_radial_72_7455)"/>
<path d="M10.1698 5.74313C10.2923 6.01313 11.1373 7.86313 11.0592 7.70688C11.286 8.21938 11.9904 9.46938 12.1948 9.81125C12.6473 10.565 12.1367 11.1919 11.8073 11.3831C10.8592 11.9331 10.3148 11.2319 10.3148 11.2319C9.81478 10.4994 9.39728 9.88938 8.57165 8.59063C8.3729 8.21563 8.0104 7.37938 7.86415 6.97375C7.50353 5.9725 8.1004 5.4125 8.4604 5.235C9.24165 4.87313 9.98415 5.3325 10.1698 5.74313Z" fill="url(#paint11_linear_72_7455)"/>
<path d="M10.1698 5.74313C10.2923 6.01313 11.1373 7.86313 11.0592 7.70688C11.286 8.21938 11.9904 9.46938 12.1948 9.81125C12.6473 10.565 12.1367 11.1919 11.8073 11.3831C10.8592 11.9331 10.3148 11.2319 10.3148 11.2319C9.81478 10.4994 9.39728 9.88938 8.57165 8.59063C8.3729 8.21563 8.0104 7.37938 7.86415 6.97375C7.50353 5.9725 8.1004 5.4125 8.4604 5.235C9.24165 4.87313 9.98415 5.3325 10.1698 5.74313Z" fill="url(#paint12_radial_72_7455)"/>
<path d="M10.1698 5.74313C10.2923 6.01313 11.1373 7.86313 11.0592 7.70688C11.286 8.21938 11.9904 9.46938 12.1948 9.81125C12.6473 10.565 12.1367 11.1919 11.8073 11.3831C10.8592 11.9331 10.3148 11.2319 10.3148 11.2319C9.81478 10.4994 9.39728 9.88938 8.57165 8.59063C8.3729 8.21563 8.0104 7.37938 7.86415 6.97375C7.50353 5.9725 8.1004 5.4125 8.4604 5.235C9.24165 4.87313 9.98415 5.3325 10.1698 5.74313Z" fill="url(#paint13_radial_72_7455)"/>
<path d="M10.1698 5.74313C10.2923 6.01313 11.1373 7.86313 11.0592 7.70688C11.286 8.21938 11.9904 9.46938 12.1948 9.81125C12.6473 10.565 12.1367 11.1919 11.8073 11.3831C10.8592 11.9331 10.3148 11.2319 10.3148 11.2319C9.81478 10.4994 9.39728 9.88938 8.57165 8.59063C8.3729 8.21563 8.0104 7.37938 7.86415 6.97375C7.50353 5.9725 8.1004 5.4125 8.4604 5.235C9.24165 4.87313 9.98415 5.3325 10.1698 5.74313Z" fill="url(#paint14_radial_72_7455)"/>
<path d="M10.1698 5.74313C10.2923 6.01313 11.1373 7.86313 11.0592 7.70688C11.286 8.21938 11.9904 9.46938 12.1948 9.81125C12.6473 10.565 12.1367 11.1919 11.8073 11.3831C10.8592 11.9331 10.3148 11.2319 10.3148 11.2319C9.81478 10.4994 9.39728 9.88938 8.57165 8.59063C8.3729 8.21563 8.0104 7.37938 7.86415 6.97375C7.50353 5.9725 8.1004 5.4125 8.4604 5.235C9.24165 4.87313 9.98415 5.3325 10.1698 5.74313Z" fill="url(#paint15_linear_72_7455)"/>
<path d="M6.86788 8.27813C7.73226 7.84813 8.36788 8.33188 8.56788 8.59563C9.19226 9.5375 9.93663 10.6081 10.2804 11.1781C11.1991 12.6969 9.31913 13.3556 9.31913 13.3556C7.59038 11.4075 7.27038 11.3094 7.14601 11.2138C7.07976 11.1631 6.67851 10.5119 6.48663 10.1931C5.97101 9.1575 6.48663 8.4675 6.86788 8.27813Z" fill="url(#paint16_radial_72_7455)"/>
<path d="M6.86788 8.27813C7.73226 7.84813 8.36788 8.33188 8.56788 8.59563C9.19226 9.5375 9.93663 10.6081 10.2804 11.1781C11.1991 12.6969 9.31913 13.3556 9.31913 13.3556C7.59038 11.4075 7.27038 11.3094 7.14601 11.2138C7.07976 11.1631 6.67851 10.5119 6.48663 10.1931C5.97101 9.1575 6.48663 8.4675 6.86788 8.27813Z" fill="url(#paint17_linear_72_7455)"/>
<path d="M6.86788 8.27813C7.73226 7.84813 8.36788 8.33188 8.56788 8.59563C9.19226 9.5375 9.93663 10.6081 10.2804 11.1781C11.1991 12.6969 9.31913 13.3556 9.31913 13.3556C7.59038 11.4075 7.27038 11.3094 7.14601 11.2138C7.07976 11.1631 6.67851 10.5119 6.48663 10.1931C5.97101 9.1575 6.48663 8.4675 6.86788 8.27813Z" fill="url(#paint18_radial_72_7455)"/>
<path d="M6.86788 8.27813C7.73226 7.84813 8.36788 8.33188 8.56788 8.59563C9.19226 9.5375 9.93663 10.6081 10.2804 11.1781C11.1991 12.6969 9.31913 13.3556 9.31913 13.3556C7.59038 11.4075 7.27038 11.3094 7.14601 11.2138C7.07976 11.1631 6.67851 10.5119 6.48663 10.1931C5.97101 9.1575 6.48663 8.4675 6.86788 8.27813Z" fill="url(#paint19_radial_72_7455)"/>
<path d="M6.86788 8.27813C7.73226 7.84813 8.36788 8.33188 8.56788 8.59563C9.19226 9.5375 9.93663 10.6081 10.2804 11.1781C11.1991 12.6969 9.31913 13.3556 9.31913 13.3556C7.59038 11.4075 7.27038 11.3094 7.14601 11.2138C7.07976 11.1631 6.67851 10.5119 6.48663 10.1931C5.97101 9.1575 6.48663 8.4675 6.86788 8.27813Z" fill="url(#paint20_radial_72_7455)"/>
<path d="M6.86788 8.27813C7.73226 7.84813 8.36788 8.33188 8.56788 8.59563C9.19226 9.5375 9.93663 10.6081 10.2804 11.1781C11.1991 12.6969 9.31913 13.3556 9.31913 13.3556C7.59038 11.4075 7.27038 11.3094 7.14601 11.2138C7.07976 11.1631 6.67851 10.5119 6.48663 10.1931C5.97101 9.1575 6.48663 8.4675 6.86788 8.27813Z" fill="url(#paint21_radial_72_7455)"/>
<path d="M5.83656 13.3581C4.79719 11.9437 6.30094 10.9694 7.14594 11.2144C7.54594 11.4612 8.16469 12.0806 8.42781 12.36C10.1041 13.9944 9.82469 14.4987 9.35594 15.0537C8.90156 15.43 8.31094 15.7319 7.43906 15.0537C7.08719 14.78 6.21844 13.8775 5.83656 13.3581Z" fill="url(#paint22_radial_72_7455)"/>
<path d="M5.83656 13.3581C4.79719 11.9437 6.30094 10.9694 7.14594 11.2144C7.54594 11.4612 8.16469 12.0806 8.42781 12.36C10.1041 13.9944 9.82469 14.4987 9.35594 15.0537C8.90156 15.43 8.31094 15.7319 7.43906 15.0537C7.08719 14.78 6.21844 13.8775 5.83656 13.3581Z" fill="url(#paint23_radial_72_7455)"/>
<path d="M5.83656 13.3581C4.79719 11.9437 6.30094 10.9694 7.14594 11.2144C7.54594 11.4612 8.16469 12.0806 8.42781 12.36C10.1041 13.9944 9.82469 14.4987 9.35594 15.0537C8.90156 15.43 8.31094 15.7319 7.43906 15.0537C7.08719 14.78 6.21844 13.8775 5.83656 13.3581Z" fill="url(#paint24_radial_72_7455)"/>
<path d="M5.83656 13.3581C4.79719 11.9437 6.30094 10.9694 7.14594 11.2144C7.54594 11.4612 8.16469 12.0806 8.42781 12.36C10.1041 13.9944 9.82469 14.4987 9.35594 15.0537C8.90156 15.43 8.31094 15.7319 7.43906 15.0537C7.08719 14.78 6.21844 13.8775 5.83656 13.3581Z" fill="url(#paint25_radial_72_7455)"/>
<path d="M5.83656 13.3581C4.79719 11.9437 6.30094 10.9694 7.14594 11.2144C7.54594 11.4612 8.16469 12.0806 8.42781 12.36C10.1041 13.9944 9.82469 14.4987 9.35594 15.0537C8.90156 15.43 8.31094 15.7319 7.43906 15.0537C7.08719 14.78 6.21844 13.8775 5.83656 13.3581Z" fill="url(#paint26_linear_72_7455)"/>
<path d="M12.7191 4.92312C13.4797 6.6 14.4128 8.6575 15.1128 9.475C15.2503 9.1575 15.2353 8.625 15.3916 7.325C15.5328 6.1525 16.5003 6.04062 16.9159 6.12375C17.8347 6.31562 18.1141 7.24625 18.0834 7.58937C18.0347 8.13625 18.0322 8.1175 17.9322 9.44062C17.7853 11.375 18.5322 12.8356 18.6009 14.4919C18.6009 17.6131 15.8653 19.1469 13.9509 19.1469C12.4191 19.1469 10.8859 18.1669 10.3116 17.6769L7.43906 15.0531C7.08719 14.78 6.21844 13.8775 5.83656 13.3581C4.79719 11.9437 6.30094 10.9694 7.14594 11.2144C7.07969 11.1631 6.67844 10.5119 6.48656 10.1931C5.97094 9.1575 6.48656 8.46812 6.86781 8.27812C7.73219 7.84812 8.36781 8.33187 8.56781 8.59562C8.49094 8.46562 8.25094 7.93937 7.86406 6.97375C7.47719 6.00875 8.10031 5.4125 8.46031 5.235C9.24156 4.87312 9.98406 5.3325 10.1697 5.74312C10.2609 5.94375 10.7509 7.01812 10.9647 7.49125C10.8034 7.09875 10.5122 6.31812 10.4091 5.9575C10.2041 5.1075 10.6972 4.525 11.0097 4.375C11.4447 4.16687 12.3516 4.1125 12.7097 4.9025L12.7191 4.92312Z" fill="url(#paint27_radial_72_7455)"/>
<path d="M12.7191 4.92312C13.4797 6.6 14.4128 8.6575 15.1128 9.475C15.2503 9.1575 15.2353 8.625 15.3916 7.325C15.5328 6.1525 16.5003 6.04062 16.9159 6.12375C17.8347 6.31562 18.1141 7.24625 18.0834 7.58937C18.0347 8.13625 18.0322 8.1175 17.9322 9.44062C17.7853 11.375 18.5322 12.8356 18.6009 14.4919C18.6009 17.6131 15.8653 19.1469 13.9509 19.1469C12.4191 19.1469 10.8859 18.1669 10.3116 17.6769L7.43906 15.0531C7.08719 14.78 6.21844 13.8775 5.83656 13.3581C4.79719 11.9437 6.30094 10.9694 7.14594 11.2144C7.07969 11.1631 6.67844 10.5119 6.48656 10.1931C5.97094 9.1575 6.48656 8.46812 6.86781 8.27812C7.73219 7.84812 8.36781 8.33187 8.56781 8.59562C8.49094 8.46562 8.25094 7.93937 7.86406 6.97375C7.47719 6.00875 8.10031 5.4125 8.46031 5.235C9.24156 4.87312 9.98406 5.3325 10.1697 5.74312C10.2609 5.94375 10.7509 7.01812 10.9647 7.49125C10.8034 7.09875 10.5122 6.31812 10.4091 5.9575C10.2041 5.1075 10.6972 4.525 11.0097 4.375C11.4447 4.16687 12.3516 4.1125 12.7097 4.9025L12.7191 4.92312Z" fill="url(#paint28_radial_72_7455)"/>
<path d="M12.7191 4.92312C13.4797 6.6 14.4128 8.6575 15.1128 9.475C15.2503 9.1575 15.2353 8.625 15.3916 7.325C15.5328 6.1525 16.5003 6.04062 16.9159 6.12375C17.8347 6.31562 18.1141 7.24625 18.0834 7.58937C18.0347 8.13625 18.0322 8.1175 17.9322 9.44062C17.7853 11.375 18.5322 12.8356 18.6009 14.4919C18.6009 17.6131 15.8653 19.1469 13.9509 19.1469C12.4191 19.1469 10.8859 18.1669 10.3116 17.6769L7.43906 15.0531C7.08719 14.78 6.21844 13.8775 5.83656 13.3581C4.79719 11.9437 6.30094 10.9694 7.14594 11.2144C7.07969 11.1631 6.67844 10.5119 6.48656 10.1931C5.97094 9.1575 6.48656 8.46812 6.86781 8.27812C7.73219 7.84812 8.36781 8.33187 8.56781 8.59562C8.49094 8.46562 8.25094 7.93937 7.86406 6.97375C7.47719 6.00875 8.10031 5.4125 8.46031 5.235C9.24156 4.87312 9.98406 5.3325 10.1697 5.74312C10.2609 5.94375 10.7509 7.01812 10.9647 7.49125C10.8034 7.09875 10.5122 6.31812 10.4091 5.9575C10.2041 5.1075 10.6972 4.525 11.0097 4.375C11.4447 4.16687 12.3516 4.1125 12.7097 4.9025L12.7191 4.92312Z" fill="url(#paint29_radial_72_7455)"/>
<path d="M13.7787 7.1675C14.2481 8.12625 14.7169 8.98562 15.1131 9.45625C15.1537 9.875 15.19 10.1137 15.29 10.475C14.4994 9.68375 13.7337 7.95437 13.7787 7.1675Z" fill="url(#paint30_radial_72_7455)"/>
<path fill-rule="evenodd" clip-rule="evenodd" d="M2.57906 11.0625C2.66846 11.0627 2.75415 11.0983 2.81731 11.1616C2.88047 11.2248 2.91594 11.3106 2.91594 11.4C2.91594 11.9625 3.14344 12.7156 3.63406 13.3238C4.11531 13.9219 4.84656 14.3744 5.87156 14.3744C5.96091 14.3744 6.04659 14.4099 6.10977 14.473C6.17295 14.5362 6.20844 14.6219 6.20844 14.7113C6.20844 14.8006 6.17295 14.8863 6.10977 14.9495C6.04659 15.0126 5.96091 15.0481 5.87156 15.0481C4.62031 15.0481 3.70469 14.4856 3.10906 13.7469C2.52281 13.0194 2.24219 12.1162 2.24219 11.3994C2.24235 11.3101 2.2779 11.2245 2.34104 11.1614C2.40418 11.0982 2.48977 11.0627 2.57906 11.0625Z" fill="url(#paint31_radial_72_7455)"/>
<path fill-rule="evenodd" clip-rule="evenodd" d="M2.57906 11.0625C2.66846 11.0627 2.75415 11.0983 2.81731 11.1616C2.88047 11.2248 2.91594 11.3106 2.91594 11.4C2.91594 11.9625 3.14344 12.7156 3.63406 13.3238C4.11531 13.9219 4.84656 14.3744 5.87156 14.3744C5.96091 14.3744 6.04659 14.4099 6.10977 14.473C6.17295 14.5362 6.20844 14.6219 6.20844 14.7113C6.20844 14.8006 6.17295 14.8863 6.10977 14.9495C6.04659 15.0126 5.96091 15.0481 5.87156 15.0481C4.62031 15.0481 3.70469 14.4856 3.10906 13.7469C2.52281 13.0194 2.24219 12.1162 2.24219 11.3994C2.24235 11.3101 2.2779 11.2245 2.34104 11.1614C2.40418 11.0982 2.48977 11.0627 2.57906 11.0625Z" fill="url(#paint32_radial_72_7455)"/>
<path fill-rule="evenodd" clip-rule="evenodd" d="M2.57906 11.0625C2.66846 11.0627 2.75415 11.0983 2.81731 11.1616C2.88047 11.2248 2.91594 11.3106 2.91594 11.4C2.91594 11.9625 3.14344 12.7156 3.63406 13.3238C4.11531 13.9219 4.84656 14.3744 5.87156 14.3744C5.96091 14.3744 6.04659 14.4099 6.10977 14.473C6.17295 14.5362 6.20844 14.6219 6.20844 14.7113C6.20844 14.8006 6.17295 14.8863 6.10977 14.9495C6.04659 15.0126 5.96091 15.0481 5.87156 15.0481C4.62031 15.0481 3.70469 14.4856 3.10906 13.7469C2.52281 13.0194 2.24219 12.1162 2.24219 11.3994C2.24235 11.3101 2.2779 11.2245 2.34104 11.1614C2.40418 11.0982 2.48977 11.0627 2.57906 11.0625Z" fill="url(#paint33_radial_72_7455)"/>
<path fill-rule="evenodd" clip-rule="evenodd" d="M1.53023 12.2644C1.61974 12.2644 1.70559 12.2999 1.76888 12.3632C1.83218 12.4265 1.86773 12.5124 1.86773 12.6019C1.86773 13.7956 2.76148 15.3906 4.64023 15.3906C4.72958 15.3906 4.81526 15.4261 4.87844 15.4893C4.94162 15.5525 4.97711 15.6382 4.97711 15.7275C4.97711 15.8168 4.94162 15.9025 4.87844 15.9657C4.81526 16.0289 4.72958 16.0644 4.64023 16.0644C2.27773 16.0644 1.19336 14.0456 1.19336 12.6019C1.19336 12.5124 1.22892 12.4265 1.29221 12.3632C1.3555 12.2999 1.44072 12.2644 1.53023 12.2644Z" fill="url(#paint34_radial_72_7455)"/>
<path fill-rule="evenodd" clip-rule="evenodd" d="M1.53023 12.2644C1.61974 12.2644 1.70559 12.2999 1.76888 12.3632C1.83218 12.4265 1.86773 12.5124 1.86773 12.6019C1.86773 13.7956 2.76148 15.3906 4.64023 15.3906C4.72958 15.3906 4.81526 15.4261 4.87844 15.4893C4.94162 15.5525 4.97711 15.6382 4.97711 15.7275C4.97711 15.8168 4.94162 15.9025 4.87844 15.9657C4.81526 16.0289 4.72958 16.0644 4.64023 16.0644C2.27773 16.0644 1.19336 14.0456 1.19336 12.6019C1.19336 12.5124 1.22892 12.4265 1.29221 12.3632C1.3555 12.2999 1.44072 12.2644 1.53023 12.2644Z" fill="url(#paint35_radial_72_7455)"/>
<path fill-rule="evenodd" clip-rule="evenodd" d="M14.1477 6.6575C14.1034 6.65775 14.0596 6.64928 14.0186 6.63258C13.9776 6.61588 13.9404 6.59127 13.9089 6.56016C13.8775 6.52905 13.8524 6.49205 13.8353 6.45128C13.8181 6.4105 13.8092 6.36674 13.8089 6.3225C13.8052 5.76 13.5727 5.00813 13.0783 4.40313C12.5927 3.80813 11.8595 3.36063 10.8339 3.36688C10.7481 3.36223 10.6672 3.325 10.6079 3.26278C10.5486 3.20056 10.5152 3.11804 10.5147 3.03206C10.5141 2.94609 10.5464 2.86314 10.6049 2.80015C10.6634 2.73716 10.7438 2.69888 10.8295 2.69313C12.0808 2.685 13.0002 3.2425 13.6002 3.97688C14.1914 4.70063 14.4777 5.60188 14.4827 6.31813C14.483 6.36242 14.4746 6.40634 14.4579 6.44738C14.4413 6.48842 14.4167 6.52577 14.3856 6.55729C14.3544 6.58881 14.3174 6.61389 14.2766 6.63108C14.2358 6.64828 14.192 6.65726 14.1477 6.6575Z" fill="url(#paint36_radial_72_7455)"/>
<path fill-rule="evenodd" clip-rule="evenodd" d="M14.1477 6.6575C14.1034 6.65775 14.0596 6.64928 14.0186 6.63258C13.9776 6.61588 13.9404 6.59127 13.9089 6.56016C13.8775 6.52905 13.8524 6.49205 13.8353 6.45128C13.8181 6.4105 13.8092 6.36674 13.8089 6.3225C13.8052 5.76 13.5727 5.00813 13.0783 4.40313C12.5927 3.80813 11.8595 3.36063 10.8339 3.36688C10.7481 3.36223 10.6672 3.325 10.6079 3.26278C10.5486 3.20056 10.5152 3.11804 10.5147 3.03206C10.5141 2.94609 10.5464 2.86314 10.6049 2.80015C10.6634 2.73716 10.7438 2.69888 10.8295 2.69313C12.0808 2.685 13.0002 3.2425 13.6002 3.97688C14.1914 4.70063 14.4777 5.60188 14.4827 6.31813C14.483 6.36242 14.4746 6.40634 14.4579 6.44738C14.4413 6.48842 14.4167 6.52577 14.3856 6.55729C14.3544 6.58881 14.3174 6.61389 14.2766 6.63108C14.2358 6.64828 14.192 6.65726 14.1477 6.6575Z" fill="url(#paint37_radial_72_7455)"/>
<path fill-rule="evenodd" clip-rule="evenodd" d="M15.1878 5.44938C15.1436 5.44962 15.0997 5.44115 15.0588 5.42445C15.0178 5.40775 14.9805 5.38314 14.9491 5.35203C14.9176 5.32093 14.8926 5.28393 14.8754 5.24315C14.8583 5.20237 14.8493 5.15861 14.8491 5.11438C14.8409 3.92063 13.9366 2.33063 12.0578 2.34313C11.9685 2.34371 11.8826 2.30877 11.819 2.246C11.7554 2.18324 11.7193 2.09778 11.7188 2.00844C11.7182 1.91909 11.7531 1.83318 11.8159 1.76959C11.8786 1.706 11.9641 1.66996 12.0534 1.66938C14.4159 1.65375 15.5128 3.66625 15.5222 5.11C15.5225 5.15424 15.5141 5.19811 15.4975 5.23911C15.4809 5.28011 15.4563 5.31743 15.4253 5.34894C15.3942 5.38046 15.3573 5.40555 15.3165 5.42278C15.2758 5.44001 15.2321 5.44905 15.1878 5.44938Z" fill="url(#paint38_radial_72_7455)"/>
<path fill-rule="evenodd" clip-rule="evenodd" d="M15.1878 5.44938C15.1436 5.44962 15.0997 5.44115 15.0588 5.42445C15.0178 5.40775 14.9805 5.38314 14.9491 5.35203C14.9176 5.32093 14.8926 5.28393 14.8754 5.24315C14.8583 5.20237 14.8493 5.15861 14.8491 5.11438C14.8409 3.92063 13.9366 2.33063 12.0578 2.34313C11.9685 2.34371 11.8826 2.30877 11.819 2.246C11.7554 2.18324 11.7193 2.09778 11.7188 2.00844C11.7182 1.91909 11.7531 1.83318 11.8159 1.76959C11.8786 1.706 11.9641 1.66996 12.0534 1.66938C14.4159 1.65375 15.5128 3.66625 15.5222 5.11C15.5225 5.15424 15.5141 5.19811 15.4975 5.23911C15.4809 5.28011 15.4563 5.31743 15.4253 5.34894C15.3942 5.38046 15.3573 5.40555 15.3165 5.42278C15.2758 5.44001 15.2321 5.44905 15.1878 5.44938Z" fill="url(#paint39_radial_72_7455)"/>
<g filter="url(#filter0_f_72_7455)">
<path d="M14.0821 9.51812C12.8715 10.0062 10.1321 11.61 9.32715 15.1831" stroke="#FFC339" stroke-width="1.25" stroke-linecap="round"/>
</g>
<defs>
<filter id="filter0_f_72_7455" x="7.45215" y="7.64296" width="8.50537" height="9.4153" filterUnits="userSpaceOnUse" color-interpolation-filters="sRGB">
<feFlood flood-opacity="0" result="BackgroundImageFix"/>
<feBlend mode="normal" in="SourceGraphic" in2="BackgroundImageFix" result="shape"/>
<feGaussianBlur stdDeviation="0.625" result="effect1_foregroundBlur_72_7455"/>
</filter>
<radialGradient id="paint0_radial_72_7455" cx="0" cy="0" r="1" gradientUnits="userSpaceOnUse" gradientTransform="translate(12.0419 9.14687) rotate(60.1006) scale(13.1575 8.59562)">
<stop offset="0.003" stop-color="#FFC133"/>
<stop offset="0.698" stop-color="#FFC53F"/>
<stop offset="0.797" stop-color="#FFAD3E"/>
<stop offset="0.945" stop-color="#EC7D58"/>
</radialGradient>
<radialGradient id="paint1_radial_72_7455" cx="0" cy="0" r="1" gradientUnits="userSpaceOnUse" gradientTransform="translate(18.6009 12.0375) rotate(-93.012) scale(7.80632 2.99057)">
<stop offset="0.003" stop-color="#FFE849"/>
<stop offset="1" stop-color="#FFE647" stop-opacity="0"/>
</radialGradient>
<radialGradient id="paint2_radial_72_7455" cx="0" cy="0" r="1" gradientUnits="userSpaceOnUse" gradientTransform="translate(17.6634 6.45133) rotate(99.682) scale(4.18064 1.60159)">
<stop offset="0.003" stop-color="#FFE849"/>
<stop offset="1" stop-color="#FFE647" stop-opacity="0"/>
</radialGradient>
<radialGradient id="paint3_radial_72_7455" cx="0" cy="0" r="1" gradientUnits="userSpaceOnUse" gradientTransform="translate(15.1127 8.96875) scale(1.69092 6.85731)">
<stop stop-color="#EE9F2C"/>
<stop offset="1" stop-color="#EE9F2C" stop-opacity="0"/>
</radialGradient>
<radialGradient id="paint4_radial_72_7455" cx="0" cy="0" r="1" gradientUnits="userSpaceOnUse" gradientTransform="translate(15.8552 11.6275) rotate(-94.0856) scale(2.84607 1.97682)">
<stop stop-color="#FFC93D"/>
<stop offset="1" stop-color="#FFC33A" stop-opacity="0"/>
</radialGradient>
<radialGradient id="paint5_radial_72_7455" cx="0" cy="0" r="1" gradientUnits="userSpaceOnUse" gradientTransform="translate(14.265 7.30687) rotate(151.024) scale(2.99168 6.00969)">
<stop offset="0.563" stop-color="#F09D2E" stop-opacity="0"/>
<stop offset="1" stop-color="#F09D2E"/>
</radialGradient>
<linearGradient id="paint6_linear_72_7455" x1="12.7369" y1="10.3719" x2="12.7369" y2="8.75625" gradientUnits="userSpaceOnUse">
<stop stop-color="#FFC337"/>
<stop offset="1" stop-color="#FFC337" stop-opacity="0"/>
</linearGradient>
<radialGradient id="paint7_radial_72_7455" cx="0" cy="0" r="1" gradientUnits="userSpaceOnUse" gradientTransform="translate(13.64 4.92812) rotate(-13.4957) scale(2.00859 4.44173)">
<stop stop-color="#FFEC4C"/>
<stop offset="1" stop-color="#FFEC4C" stop-opacity="0"/>
</radialGradient>
<radialGradient id="paint8_radial_72_7455" cx="0" cy="0" r="1" gradientUnits="userSpaceOnUse" gradientTransform="translate(10.3606 4.24187) rotate(33.3063) scale(1.9609 1.5203)">
<stop stop-color="#D99F2B"/>
<stop offset="1" stop-color="#D99F2B" stop-opacity="0"/>
</radialGradient>
<linearGradient id="paint9_linear_72_7455" x1="10.6713" y1="8.19" x2="11.6475" y2="7.72125" gradientUnits="userSpaceOnUse">
<stop stop-color="#A85300"/>
<stop offset="0.825" stop-color="#A85300" stop-opacity="0"/>
</linearGradient>
<radialGradient id="paint10_radial_72_7455" cx="0" cy="0" r="1" gradientUnits="userSpaceOnUse" gradientTransform="translate(11.446 8.23125) rotate(149.148) scale(2.88384 6.01802)">
<stop offset="0.563" stop-color="#F09D2E" stop-opacity="0"/>
<stop offset="1" stop-color="#F09D2E"/>
</radialGradient>
<linearGradient id="paint11_linear_72_7455" x1="10.0004" y1="11.3594" x2="10.0004" y2="9.71063" gradientUnits="userSpaceOnUse">
<stop stop-color="#FFC337"/>
<stop offset="1" stop-color="#FFC337" stop-opacity="0"/>
</linearGradient>
<radialGradient id="paint12_radial_72_7455" cx="0" cy="0" r="1" gradientUnits="userSpaceOnUse" gradientTransform="translate(11.1135 6.39313) rotate(-33.8929) scale(1.91384 5.82669)">
<stop stop-color="#FFEC4C"/>
<stop offset="1" stop-color="#FFEC4C" stop-opacity="0"/>
</radialGradient>
<radialGradient id="paint13_radial_72_7455" cx="0" cy="0" r="1" gradientUnits="userSpaceOnUse" gradientTransform="translate(9.65603 8.75625) rotate(-24.9048) scale(2.41177 11.0124)">
<stop offset="0.598" stop-color="#F09D2E" stop-opacity="0"/>
<stop offset="1" stop-color="#F09D2E"/>
</radialGradient>
<radialGradient id="paint14_radial_72_7455" cx="0" cy="0" r="1" gradientUnits="userSpaceOnUse" gradientTransform="translate(7.46853 5.10375) rotate(32.6006) scale(1.99382 1.5891)">
<stop stop-color="#D99F2B"/>
<stop offset="1" stop-color="#D99F2B" stop-opacity="0"/>
</radialGradient>
<linearGradient id="paint15_linear_72_7455" x1="8.34728" y1="9.14688" x2="8.99728" y2="8.6925" gradientUnits="userSpaceOnUse">
<stop stop-color="#A85300"/>
<stop offset="0.825" stop-color="#A85300" stop-opacity="0"/>
</linearGradient>
<radialGradient id="paint16_radial_72_7455" cx="0" cy="0" r="1" gradientUnits="userSpaceOnUse" gradientTransform="translate(9.77226 10.7313) rotate(137.351) scale(2.38911 4.67834)">
<stop offset="0.563" stop-color="#F09D2E" stop-opacity="0"/>
<stop offset="1" stop-color="#F09D2E"/>
</radialGradient>
<linearGradient id="paint17_linear_72_7455" x1="8.40163" y1="13.3556" x2="8.40163" y2="11.9725" gradientUnits="userSpaceOnUse">
<stop stop-color="#FFC337"/>
<stop offset="1" stop-color="#FFC337" stop-opacity="0"/>
</linearGradient>
<radialGradient id="paint18_radial_72_7455" cx="0" cy="0" r="1" gradientUnits="userSpaceOnUse" gradientTransform="translate(9.18663 8.68125) rotate(-12.2959) scale(1.81959 3.85439)">
<stop stop-color="#FFEC4C"/>
<stop offset="1" stop-color="#FFEC4C" stop-opacity="0"/>
</radialGradient>
<radialGradient id="paint19_radial_72_7455" cx="0" cy="0" r="1" gradientUnits="userSpaceOnUse" gradientTransform="translate(8.07538 11.1719) rotate(-40.217) scale(2.531 12.9393)">
<stop offset="0.598" stop-color="#F09D2E" stop-opacity="0"/>
<stop offset="1" stop-color="#F09D2E"/>
</radialGradient>
<radialGradient id="paint20_radial_72_7455" cx="0" cy="0" r="1" gradientUnits="userSpaceOnUse" gradientTransform="translate(6.00038 8.10688) rotate(29.5035) scale(1.83041 1.37761)">
<stop stop-color="#D99F2B"/>
<stop offset="1" stop-color="#D99F2B" stop-opacity="0"/>
</radialGradient>
<radialGradient id="paint21_radial_72_7455" cx="0" cy="0" r="1" gradientUnits="userSpaceOnUse" gradientTransform="translate(6.96038 11.7056) rotate(-45.7639) scale(1.03589 4.67718)">
<stop stop-color="#A85300"/>
<stop offset="0.825" stop-color="#A85300" stop-opacity="0"/>
</radialGradient>
<radialGradient id="paint22_radial_72_7455" cx="0" cy="0" r="1" gradientUnits="userSpaceOnUse" gradientTransform="translate(9.24094 13.4487) rotate(143.369) scale(2.34877 4.41933)">
<stop offset="0.563" stop-color="#F09D2E" stop-opacity="0"/>
<stop offset="1" stop-color="#F09D2E"/>
</radialGradient>
<radialGradient id="paint23_radial_72_7455" cx="0" cy="0" r="1" gradientUnits="userSpaceOnUse" gradientTransform="translate(8.61219 11.6731) rotate(-9.97762) scale(1.93629 3.3638)">
<stop stop-color="#FFEC4C"/>
<stop offset="1" stop-color="#FFEC4C" stop-opacity="0"/>
</radialGradient>
<radialGradient id="paint24_radial_72_7455" cx="0" cy="0" r="1" gradientUnits="userSpaceOnUse" gradientTransform="translate(7.41983 13.8299) rotate(-34.314) scale(2.50989 12.1176)">
<stop offset="0.598" stop-color="#F09D2E" stop-opacity="0"/>
<stop offset="1" stop-color="#F09D2E"/>
</radialGradient>
<radialGradient id="paint25_radial_72_7455" cx="0" cy="0" r="1" gradientUnits="userSpaceOnUse" gradientTransform="translate(5.19406 11.1769) rotate(24.5479) scale(1.87856 1.24657)">
<stop stop-color="#D99F2B"/>
<stop offset="1" stop-color="#D99F2B" stop-opacity="0"/>
</radialGradient>
<linearGradient id="paint26_linear_72_7455" x1="9.34344" y1="17.7406" x2="7.77031" y2="14.5231" gradientUnits="userSpaceOnUse">
<stop stop-color="#FFC337"/>
<stop offset="1" stop-color="#FFC337" stop-opacity="0"/>
</linearGradient>
<radialGradient id="paint27_radial_72_7455" cx="0" cy="0" r="1" gradientUnits="userSpaceOnUse" gradientTransform="translate(14.9684 8.32687) rotate(129.014) scale(10.8592 17.5616)">
<stop offset="0.872" stop-color="#F6814F" stop-opacity="0"/>
<stop offset="1" stop-color="#F7814F"/>
</radialGradient>
<radialGradient id="paint28_radial_72_7455" cx="0" cy="0" r="1" gradientUnits="userSpaceOnUse" gradientTransform="translate(12.7028 8.44375) rotate(76.293) scale(11.5396 12.6614)">
<stop offset="0.853" stop-color="#F6814F" stop-opacity="0"/>
<stop offset="1" stop-color="#F7814F"/>
</radialGradient>
<radialGradient id="paint29_radial_72_7455" cx="0" cy="0" r="1" gradientUnits="userSpaceOnUse" gradientTransform="translate(15.3197 5.51437) rotate(64.44) scale(1.9918 1.77567)">
<stop stop-color="#D99F2B"/>
<stop offset="1" stop-color="#D99F2B" stop-opacity="0"/>
</radialGradient>
<radialGradient id="paint30_radial_72_7455" cx="0" cy="0" r="1" gradientUnits="userSpaceOnUse" gradientTransform="translate(15.2906 9.32227) rotate(149.254) scale(0.7585 2.34709)">
<stop offset="0.201" stop-color="#B4813D"/>
<stop offset="1" stop-color="#B4813D" stop-opacity="0"/>
</radialGradient>
<radialGradient id="paint31_radial_72_7455" cx="0" cy="0" r="1" gradientUnits="userSpaceOnUse" gradientTransform="translate(3.05844 11.2438) rotate(62.071) scale(3.3201 4.92386)">
<stop stop-color="#419FFD"/>
<stop offset="1" stop-color="#4B6DCB"/>
</radialGradient>
<radialGradient id="paint32_radial_72_7455" cx="0" cy="0" r="1" gradientUnits="userSpaceOnUse" gradientTransform="translate(2.11906 11.4906) rotate(2.38594) scale(0.469157 0.987344)">
<stop stop-color="#5486C7"/>
<stop offset="1" stop-color="#5486C7" stop-opacity="0"/>
</radialGradient>
<radialGradient id="paint33_radial_72_7455" cx="0" cy="0" r="1" gradientUnits="userSpaceOnUse" gradientTransform="translate(5.63531 14.1663) rotate(111.801) scale(0.473308 1.39217)">
<stop stop-color="#5486C7"/>
<stop offset="1" stop-color="#5486C7" stop-opacity="0"/>
</radialGradient>
<radialGradient id="paint34_radial_72_7455" cx="0" cy="0" r="1" gradientUnits="userSpaceOnUse" gradientTransform="translate(3.30148 12.9747) rotate(94.712) scale(2.62606 4.41547)">
<stop stop-color="#419FFD"/>
<stop offset="1" stop-color="#4B6DCB"/>
</radialGradient>
<radialGradient id="paint35_radial_72_7455" cx="0" cy="0" r="1" gradientUnits="userSpaceOnUse" gradientTransform="translate(1.07648 12.6725) rotate(2.38521) scale(0.447525 0.941365)">
<stop stop-color="#5486C7"/>
<stop offset="1" stop-color="#5486C7" stop-opacity="0"/>
</radialGradient>
<radialGradient id="paint36_radial_72_7455" cx="0" cy="0" r="1" gradientUnits="userSpaceOnUse" gradientTransform="translate(11.5677 1.96625) rotate(60.196) scale(2.7895 4.13694)">
<stop stop-color="#419FFD"/>
<stop offset="1" stop-color="#4B6DCB"/>
</radialGradient>
<radialGradient id="paint37_radial_72_7455" cx="0" cy="0" r="1" gradientUnits="userSpaceOnUse" gradientTransform="translate(10.4183 2.97639) rotate(18.861) scale(0.401319 0.645944)">
<stop stop-color="#4D8AC1"/>
<stop offset="1" stop-color="#4D8AC1" stop-opacity="0"/>
</radialGradient>
<radialGradient id="paint38_radial_72_7455" cx="0" cy="0" r="1" gradientUnits="userSpaceOnUse" gradientTransform="translate(12.7422 0.97625) rotate(60.69) scale(3.46539 5.14066)">
<stop stop-color="#419FFD"/>
<stop offset="1" stop-color="#4B6DCB"/>
</radialGradient>
<radialGradient id="paint39_radial_72_7455" cx="0" cy="0" r="1" gradientUnits="userSpaceOnUse" gradientTransform="translate(11.6466 1.93964) rotate(18.853) scale(0.382794 0.615894)">
<stop stop-color="#4D8AC1"/>
<stop offset="1" stop-color="#4D8AC1" stop-opacity="0"/>
</radialGradient>
</defs>
</svg>
