<svg width="20" height="20" viewBox="0 0 20 20" fill="none" xmlns="http://www.w3.org/2000/svg">
<path fill-rule="evenodd" clip-rule="evenodd" d="M10 1.04167C8.95021 1.04167 7.94339 1.45871 7.20106 2.20104C6.45873 2.94337 6.04169 3.95019 6.04169 5.00001C6.04169 6.04982 6.45873 7.05664 7.20106 7.79897C7.94339 8.5413 8.95021 8.95834 10 8.95834C11.0498 8.95834 12.0567 8.5413 12.799 7.79897C13.5413 7.05664 13.9584 6.04982 13.9584 5.00001C13.9584 3.95019 13.5413 2.94337 12.799 2.20104C12.0567 1.45871 11.0498 1.04167 10 1.04167ZM7.29169 5.00001C7.29169 4.28171 7.57703 3.59284 8.08495 3.08492C8.59286 2.57701 9.28173 2.29167 10 2.29167C10.7183 2.29167 11.4072 2.57701 11.9151 3.08492C12.423 3.59284 12.7084 4.28171 12.7084 5.00001C12.7084 5.7183 12.423 6.40717 11.9151 6.91509C11.4072 7.423 10.7183 7.70834 10 7.70834C9.28173 7.70834 8.59286 7.423 8.08495 6.91509C7.57703 6.40717 7.29169 5.7183 7.29169 5.00001ZM10 10.2083C8.07253 10.2083 6.29586 10.6467 4.98003 11.3867C3.68336 12.1167 2.70836 13.2217 2.70836 14.5833V14.6683C2.70753 15.6367 2.70669 16.8517 3.77253 17.72C4.29669 18.1467 5.03086 18.4508 6.02253 18.6508C7.01586 18.8525 8.31169 18.9583 10 18.9583C11.6884 18.9583 12.9834 18.8525 13.9784 18.6508C14.97 18.4508 15.7034 18.1467 16.2284 17.72C17.2942 16.8517 17.2925 15.6367 17.2917 14.6683V14.5833C17.2917 13.2217 16.3167 12.1167 15.0209 11.3867C13.7042 10.6467 11.9284 10.2083 10 10.2083ZM3.95836 14.5833C3.95836 13.8742 4.47669 13.1042 5.59253 12.4767C6.68919 11.86 8.24586 11.4583 10.0009 11.4583C11.7542 11.4583 13.3109 11.86 14.4075 12.4767C15.5242 13.1042 16.0417 13.8742 16.0417 14.5833C16.0417 15.6733 16.0084 16.2867 15.4384 16.75C15.13 17.0017 14.6134 17.2475 13.73 17.4258C12.8492 17.6042 11.645 17.7083 10 17.7083C8.35503 17.7083 7.15003 17.6042 6.27003 17.4258C5.38669 17.2475 4.87003 17.0017 4.56169 16.7508C3.99169 16.2867 3.95836 15.6733 3.95836 14.5833Z" fill="white"/>
</svg>
