<svg width="24" height="25" viewBox="0 0 24 25" fill="none" xmlns="http://www.w3.org/2000/svg">
<path d="M3.02388 16.6428L6.38721 14.0708C6.1949 13.4867 6.09091 12.8618 6.09091 12.2118C6.09091 11.5618 6.1949 10.937 6.38721 10.3528L3.02388 7.78088C2.36791 9.11454 2 10.6181 2 12.2118C2 13.8055 2.36791 15.3091 3.02388 16.6428Z" fill="#FBBC05"/>
<path d="M6.38725 10.3528C7.16325 7.99586 9.3773 6.3027 12 6.3027C13.4091 6.3027 14.6819 6.8027 15.6819 7.62088L18.591 4.71179C16.8182 3.16634 14.5455 2.21179 12 2.21179C8.04828 2.21179 4.6505 4.47389 3.02393 7.78086L6.38725 10.3528Z" fill="#EA4335"/>
<path d="M11.9999 22.2118C8.04707 22.2118 4.6485 19.9485 3.02246 16.64L6.38442 14.0625C7.15795 16.4238 9.37411 18.1209 11.9999 18.1209C13.2848 18.1209 14.4233 17.8183 15.3249 17.2493L18.5179 19.7213C16.77 21.3465 14.439 22.2118 11.9999 22.2118Z" fill="#34A853"/>
<path d="M12 10.3936H21.3182C21.4545 10.9845 21.5455 11.6209 21.5455 12.2118C21.5455 15.4711 20.3531 18.015 18.5179 19.7213L15.325 17.2493C16.369 16.5904 17.0953 15.5744 17.3636 14.2573H12V10.3936Z" fill="#4285F4"/>
</svg>
