<svg width="20" height="20" viewBox="0 0 20 20" fill="none" xmlns="http://www.w3.org/2000/svg">
<path fill-rule="evenodd" clip-rule="evenodd" d="M9.58335 2.29167C8.6258 2.29167 7.67762 2.48028 6.79295 2.84672C5.90829 3.21316 5.10446 3.75026 4.42737 4.42735C3.75027 5.10444 3.21317 5.90827 2.84673 6.79294C2.48029 7.6776 2.29169 8.62578 2.29169 9.58334C2.29169 10.5409 2.48029 11.4891 2.84673 12.3737C3.21317 13.2584 3.75027 14.0622 4.42737 14.7393C5.10446 15.4164 5.90829 15.9535 6.79295 16.32C7.67762 16.6864 8.6258 16.875 9.58335 16.875C11.5172 16.875 13.3719 16.1068 14.7393 14.7393C16.1068 13.3719 16.875 11.5172 16.875 9.58334C16.875 7.64947 16.1068 5.7948 14.7393 4.42735C13.3719 3.0599 11.5172 2.29167 9.58335 2.29167ZM1.04169 9.58334C1.04169 4.86667 4.86669 1.04167 9.58335 1.04167C14.3 1.04167 18.125 4.86667 18.125 9.58334C18.125 11.7167 17.3425 13.6683 16.0492 15.165L18.775 17.8917C18.8364 17.9489 18.8857 18.0179 18.9198 18.0946C18.954 18.1712 18.9724 18.254 18.9738 18.3379C18.9753 18.4218 18.9599 18.5052 18.9285 18.583C18.897 18.6608 18.8502 18.7315 18.7909 18.7909C18.7315 18.8502 18.6608 18.897 18.583 18.9284C18.5052 18.9599 18.4218 18.9753 18.3379 18.9738C18.254 18.9723 18.1712 18.954 18.0946 18.9198C18.0179 18.8857 17.9489 18.8364 17.8917 18.775L15.165 16.0492C13.6153 17.3909 11.6332 18.128 9.58335 18.125C4.86669 18.125 1.04169 14.3 1.04169 9.58334Z" fill="white"/>
</svg>
