<svg width="19" height="18" viewBox="0 0 19 18" fill="none" xmlns="http://www.w3.org/2000/svg">
<path fill-rule="evenodd" clip-rule="evenodd" d="M9.29172 0C8.68755 0 8.13588 0.166667 7.53338 0.4475C6.94838 0.72 6.27338 1.1225 5.42672 1.62667L4.21338 2.34917C3.28088 2.905 2.53838 3.3475 1.97505 3.77083C1.39422 4.20833 0.958382 4.65833 0.675049 5.25083C0.390049 5.84333 0.313382 6.46417 0.337549 7.18833C0.361715 7.88917 0.484215 8.74167 0.637549 9.81L0.881715 11.5033C1.07922 12.8783 1.23672 13.9692 1.47088 14.8183C1.71255 15.6933 2.05588 16.3892 2.67505 16.9217C3.29338 17.455 4.03338 17.6925 4.93838 17.8067C5.81838 17.9167 6.92755 17.9167 8.32672 17.9167H10.2567C11.6567 17.9167 12.765 17.9167 13.645 17.8067C14.55 17.6925 15.29 17.455 15.9084 16.9225C16.5275 16.3892 16.8709 15.6942 17.1125 14.8183C17.3467 13.9683 17.5042 12.8783 17.7017 11.5033L17.945 9.81C18.0992 8.74167 18.2217 7.88917 18.245 7.18833C18.27 6.46333 18.1934 5.84333 17.9092 5.25083C17.625 4.65833 17.1892 4.20833 16.6084 3.77083C16.0459 3.3475 15.3025 2.905 14.37 2.34917L13.1567 1.62667C12.31 1.1225 11.635 0.72 11.0509 0.4475C10.4475 0.165833 9.89588 0 9.29172 0ZM6.03838 2.7175C6.91921 2.1925 7.54088 1.82333 8.06172 1.58C8.56922 1.34333 8.93422 1.25 9.29172 1.25C9.65005 1.25 10.0142 1.34333 10.5217 1.58C11.0425 1.82333 11.6634 2.1925 12.545 2.7175L13.6992 3.405C14.67 3.98333 15.3542 4.39167 15.8575 4.77C16.3467 5.13917 16.6159 5.44417 16.7825 5.79083C16.9484 6.1375 17.0175 6.53583 16.9967 7.14583C16.975 7.77083 16.8634 8.555 16.7034 9.6675L16.47 11.2817C16.265 12.71 16.1184 13.7217 15.9075 14.4858C15.7017 15.2325 15.4534 15.665 15.0934 15.975C14.7325 16.2858 14.265 16.4692 13.4892 16.5667C12.6967 16.6658 11.6659 16.6667 10.2142 16.6667H8.37005C6.91755 16.6667 5.88672 16.6658 5.09422 16.5667C4.31922 16.4692 3.85088 16.2858 3.49005 15.975C3.13005 15.665 2.88172 15.2325 2.67588 14.4858C2.46505 13.7217 2.31755 12.71 2.11255 11.2817L1.88005 9.6675C1.72005 8.555 1.60838 7.77 1.58672 7.14583C1.56588 6.53583 1.63505 6.1375 1.80172 5.79083C1.96838 5.44417 2.23588 5.13917 2.72672 4.77C3.22922 4.39167 3.91338 3.98333 4.88422 3.405L6.03838 2.7175Z" fill="#555555"/>
<path d="M6.79169 13.3333C6.62593 13.3333 6.46696 13.3992 6.34975 13.5164C6.23254 13.6336 6.16669 13.7926 6.16669 13.9583C6.16669 14.1241 6.23254 14.283 6.34975 14.4003C6.46696 14.5175 6.62593 14.5833 6.79169 14.5833H11.7917C11.9574 14.5833 12.1164 14.5175 12.2336 14.4003C12.3508 14.283 12.4167 14.1241 12.4167 13.9583C12.4167 13.7926 12.3508 13.6336 12.2336 13.5164C12.1164 13.3992 11.9574 13.3333 11.7917 13.3333H6.79169Z" fill="#555555"/>
</svg>
