<svg width="20" height="20" viewBox="0 0 20 20" fill="none" xmlns="http://www.w3.org/2000/svg">
<path d="M2.5 5.43667C2.5 5.1075 2.7725 4.84167 3.10833 4.84167H7.09833C7.10333 4.14 7.18 3.17917 7.875 2.51417C8.4475 1.96814 9.20887 1.66449 10 1.66667C10.7911 1.66449 11.5525 1.96814 12.125 2.51417C12.82 3.17917 12.8967 4.14 12.9017 4.84167H16.8917C17.2275 4.84167 17.5 5.10834 17.5 5.43667C17.4991 5.51568 17.4827 5.59375 17.4517 5.66641C17.4206 5.73908 17.3756 5.80492 17.3191 5.86017C17.2626 5.91542 17.1958 5.959 17.1224 5.98843C17.0491 6.01786 16.9707 6.03255 16.8917 6.03167H3.10833C3.02932 6.03255 2.95091 6.01786 2.87757 5.98843C2.80424 5.959 2.73742 5.91542 2.68093 5.86017C2.62444 5.80492 2.57938 5.73908 2.54834 5.66641C2.5173 5.59375 2.50087 5.51568 2.5 5.43667Z" fill="white"/>
<path fill-rule="evenodd" clip-rule="evenodd" d="M9.66336 18.3333H10.3367C12.6559 18.3333 13.815 18.3333 14.57 17.595C15.3234 16.8567 15.4 15.645 15.5542 13.2233L15.7767 9.73417C15.86 8.42 15.9017 7.7625 15.5242 7.34584C15.1459 6.92917 14.5075 6.92917 13.23 6.92917H6.77002C5.49252 6.92917 4.85336 6.92917 4.47586 7.34584C4.09752 7.7625 4.13919 8.42 4.22336 9.73417L4.44586 13.2242C4.60002 15.6458 4.67669 16.8575 5.43086 17.595C6.18502 18.3333 7.34419 18.3333 9.66336 18.3333ZM8.53836 10.1575C8.50502 9.79584 8.19836 9.5325 7.85502 9.56834C7.51086 9.60417 7.26086 9.92667 7.29502 10.2883L7.71169 14.6742C7.74502 15.0358 8.05169 15.2992 8.39502 15.2633C8.73919 15.2267 8.98919 14.905 8.95502 14.5433L8.53836 10.1575ZM12.1459 9.56834C12.4892 9.60417 12.74 9.92667 12.705 10.2883L12.2884 14.6742C12.255 15.0358 11.9475 15.2992 11.605 15.2633C11.2609 15.2267 11.0109 14.905 11.045 14.5433L11.4617 10.1567C11.495 9.79584 11.8025 9.53167 12.145 9.5675" fill="white"/>
</svg>
