<svg width="19" height="18" viewBox="0 0 19 18" fill="none" xmlns="http://www.w3.org/2000/svg">
<path fill-rule="evenodd" clip-rule="evenodd" d="M8.87504 1.25C7.91748 1.25 6.96931 1.4386 6.08464 1.80504C5.19997 2.17149 4.39615 2.70859 3.71905 3.38568C3.04196 4.06277 2.50486 4.8666 2.13842 5.75127C1.77198 6.63593 1.58337 7.58411 1.58337 8.54167C1.58337 9.49922 1.77198 10.4474 2.13842 11.3321C2.50486 12.2167 3.04196 13.0206 3.71905 13.6977C4.39615 14.3747 5.19997 14.9118 6.08464 15.2783C6.96931 15.6447 7.91748 15.8333 8.87504 15.8333C10.8089 15.8333 12.6636 15.0651 14.031 13.6977C15.3985 12.3302 16.1667 10.4755 16.1667 8.54167C16.1667 6.6078 15.3985 4.75313 14.031 3.38568C12.6636 2.01823 10.8089 1.25 8.87504 1.25ZM0.333374 8.54167C0.333374 3.825 4.15837 0 8.87504 0C13.5917 0 17.4167 3.825 17.4167 8.54167C17.4167 10.675 16.6342 12.6267 15.3409 14.1233L18.0667 16.85C18.1281 16.9072 18.1774 16.9762 18.2115 17.0529C18.2457 17.1295 18.2641 17.2123 18.2655 17.2962C18.267 17.3801 18.2516 17.4635 18.2201 17.5413C18.1887 17.6192 18.1419 17.6898 18.0826 17.7492C18.0232 17.8085 17.9525 17.8553 17.8747 17.8868C17.7969 17.9182 17.7135 17.9336 17.6296 17.9322C17.5457 17.9307 17.4629 17.9123 17.3863 17.8781C17.3096 17.844 17.2406 17.7947 17.1834 17.7333L14.4567 15.0075C12.907 16.3492 10.9249 17.0864 8.87504 17.0833C4.15837 17.0833 0.333374 13.2583 0.333374 8.54167Z" fill="#555555"/>
</svg>
