<svg width="20" height="20" viewBox="0 0 20 20" fill="none" xmlns="http://www.w3.org/2000/svg">
<path d="M7.5 14.375C7.33424 14.375 7.17527 14.4408 7.05806 14.5581C6.94085 14.6753 6.875 14.8342 6.875 15C6.875 15.1658 6.94085 15.3247 7.05806 15.4419C7.17527 15.5592 7.33424 15.625 7.5 15.625H12.5C12.6658 15.625 12.8247 15.5592 12.9419 15.4419C13.0592 15.3247 13.125 15.1658 13.125 15C13.125 14.8342 13.0592 14.6753 12.9419 14.5581C12.8247 14.4408 12.6658 14.375 12.5 14.375H7.5Z" fill="white"/>
<path fill-rule="evenodd" clip-rule="evenodd" d="M10 1.04167C9.39586 1.04167 8.84419 1.20834 8.24169 1.48917C7.65669 1.76167 6.98169 2.16417 6.13503 2.66834L4.92169 3.39084C3.9892 3.94667 3.2467 4.38917 2.68336 4.81251C2.10253 5.25001 1.6667 5.70001 1.38336 6.29251C1.09836 6.885 1.0217 7.50584 1.04586 8.23001C1.07003 8.93084 1.19253 9.78334 1.34586 10.8517L1.59003 12.545C1.78753 13.92 1.94503 15.0108 2.1792 15.86C2.42086 16.735 2.7642 17.4308 3.38336 17.9633C4.00169 18.4967 4.74169 18.7342 5.64669 18.8483C6.52669 18.9583 7.63586 18.9583 9.03503 18.9583H10.965C12.365 18.9583 13.4734 18.9583 14.3534 18.8483C15.2584 18.7342 15.9984 18.4967 16.6167 17.9642C17.2359 17.4308 17.5792 16.7358 17.8209 15.86C18.055 15.01 18.2125 13.92 18.41 12.545L18.6534 10.8517C18.8075 9.78334 18.93 8.93084 18.9534 8.23001C18.9784 7.50501 18.9017 6.885 18.6175 6.29251C18.3334 5.70001 17.8975 5.25001 17.3167 4.81251C16.7542 4.38917 16.0109 3.94667 15.0784 3.39084L13.865 2.66834C13.0184 2.16417 12.3434 1.76167 11.7592 1.48917C11.1559 1.20751 10.6042 1.04167 10 1.04167ZM6.74669 3.75917C7.62753 3.23417 8.2492 2.86501 8.77003 2.62167C9.27753 2.385 9.64253 2.29167 10 2.29167C10.3584 2.29167 10.7225 2.385 11.23 2.62167C11.7509 2.86501 12.3717 3.23417 13.2534 3.75917L14.4075 4.44667C15.3784 5.025 16.0625 5.43334 16.5659 5.81167C17.055 6.18084 17.3242 6.48584 17.4909 6.83251C17.6567 7.17917 17.7259 7.5775 17.705 8.1875C17.6834 8.8125 17.5717 9.59667 17.4117 10.7092L17.1784 12.3233C16.9734 13.7517 16.8267 14.7633 16.6159 15.5275C16.41 16.2742 16.1617 16.7067 15.8017 17.0167C15.4409 17.3275 14.9734 17.5108 14.1975 17.6083C13.405 17.7075 12.3742 17.7083 10.9225 17.7083H9.07836C7.62586 17.7083 6.59503 17.7075 5.80253 17.6083C5.02753 17.5108 4.5592 17.3275 4.19836 17.0167C3.83836 16.7067 3.59003 16.2742 3.3842 15.5275C3.17336 14.7633 3.02586 13.7517 2.82086 12.3233L2.58836 10.7092C2.42836 9.59667 2.3167 8.81167 2.29503 8.1875C2.2742 7.5775 2.34336 7.17917 2.51003 6.83251C2.6767 6.48584 2.9442 6.18084 3.43503 5.81167C3.93753 5.43334 4.62169 5.025 5.59253 4.44667L6.74669 3.75917Z" fill="white"/>
</svg>
