<svg width="20" height="20" viewBox="0 0 20 20" fill="none" xmlns="http://www.w3.org/2000/svg">
<path d="M10.625 9.6875C10.625 7.09867 8.52633 5 5.9375 5C3.34867 5 1.25 7.09867 1.25 9.6875V14.0625C1.25 16.6513 3.34867 18.75 5.9375 18.75C8.52633 18.75 10.625 16.6513 10.625 14.0625V9.6875Z" fill="#D3D3D3"/>
<path d="M10.625 9.6875C10.625 7.09867 8.52633 5 5.9375 5C3.34867 5 1.25 7.09867 1.25 9.6875V14.0625C1.25 16.6513 3.34867 18.75 5.9375 18.75C8.52633 18.75 10.625 16.6513 10.625 14.0625V9.6875Z" fill="url(#paint0_radial_123_7520)"/>
<path d="M10.625 9.6875C10.625 7.09867 8.52633 5 5.9375 5C3.34867 5 1.25 7.09867 1.25 9.6875V14.0625C1.25 16.6513 3.34867 18.75 5.9375 18.75C8.52633 18.75 10.625 16.6513 10.625 14.0625V9.6875Z" fill="url(#paint1_linear_123_7520)"/>
<path d="M10.625 9.6875C10.625 7.09867 8.52633 5 5.9375 5C3.34867 5 1.25 7.09867 1.25 9.6875V14.0625C1.25 16.6513 3.34867 18.75 5.9375 18.75C8.52633 18.75 10.625 16.6513 10.625 14.0625V9.6875Z" fill="url(#paint2_radial_123_7520)"/>
<path d="M10.625 9.6875C10.625 7.09867 8.52633 5 5.9375 5C3.34867 5 1.25 7.09867 1.25 9.6875V14.0625C1.25 16.6513 3.34867 18.75 5.9375 18.75C8.52633 18.75 10.625 16.6513 10.625 14.0625V9.6875Z" fill="url(#paint3_radial_123_7520)"/>
<path d="M10.625 9.6875C10.625 7.09867 8.52633 5 5.9375 5C3.34867 5 1.25 7.09867 1.25 9.6875V14.0625C1.25 16.6513 3.34867 18.75 5.9375 18.75C8.52633 18.75 10.625 16.6513 10.625 14.0625V9.6875Z" fill="url(#paint4_radial_123_7520)"/>
<path d="M10.625 9.6875C10.625 7.09867 8.52633 5 5.9375 5C3.34867 5 1.25 7.09867 1.25 9.6875V14.0625C1.25 16.6513 3.34867 18.75 5.9375 18.75C8.52633 18.75 10.625 16.6513 10.625 14.0625V9.6875Z" fill="url(#paint5_radial_123_7520)"/>
<path d="M10.625 9.6875C10.625 7.09867 8.52633 5 5.9375 5C3.34867 5 1.25 7.09867 1.25 9.6875V14.0625C1.25 16.6513 3.34867 18.75 5.9375 18.75C8.52633 18.75 10.625 16.6513 10.625 14.0625V9.6875Z" fill="url(#paint6_radial_123_7520)"/>
<g filter="url(#filter0_f_123_7520)">
<path d="M10.2339 8.46687C10.2339 8.16726 9.99104 7.92437 9.69143 7.92437C9.39181 7.92437 9.14893 8.16726 9.14893 8.46687V14.6731C9.14893 14.9727 9.39181 15.2156 9.69143 15.2156C9.99104 15.2156 10.2339 14.9727 10.2339 14.6731V8.46687Z" fill="#6F6873"/>
</g>
<path d="M18.75 9.6875C18.75 7.09867 16.6513 5 14.0625 5C11.4737 5 9.375 7.09867 9.375 9.6875V14.0625C9.375 16.6513 11.4737 18.75 14.0625 18.75C16.6513 18.75 18.75 16.6513 18.75 14.0625V9.6875Z" fill="url(#paint7_radial_123_7520)"/>
<path d="M18.75 9.6875C18.75 7.09867 16.6513 5 14.0625 5C11.4737 5 9.375 7.09867 9.375 9.6875V14.0625C9.375 16.6513 11.4737 18.75 14.0625 18.75C16.6513 18.75 18.75 16.6513 18.75 14.0625V9.6875Z" fill="url(#paint8_linear_123_7520)"/>
<path d="M18.75 9.6875C18.75 7.09867 16.6513 5 14.0625 5C11.4737 5 9.375 7.09867 9.375 9.6875V14.0625C9.375 16.6513 11.4737 18.75 14.0625 18.75C16.6513 18.75 18.75 16.6513 18.75 14.0625V9.6875Z" fill="url(#paint9_radial_123_7520)"/>
<path d="M14.375 10.3125C14.375 9.10438 13.3956 8.125 12.1875 8.125C10.9794 8.125 10 9.10438 10 10.3125V13.4375C10 14.6456 10.9794 15.625 12.1875 15.625C13.3956 15.625 14.375 14.6456 14.375 13.4375V10.3125Z" fill="url(#paint10_linear_123_7520)"/>
<path d="M14.375 10.3125C14.375 9.10438 13.3956 8.125 12.1875 8.125C10.9794 8.125 10 9.10438 10 10.3125V13.4375C10 14.6456 10.9794 15.625 12.1875 15.625C13.3956 15.625 14.375 14.6456 14.375 13.4375V10.3125Z" fill="url(#paint11_radial_123_7520)"/>
<path d="M6.28955 10.3125C6.28955 9.10438 5.31017 8.125 4.10205 8.125C2.89393 8.125 1.91455 9.10438 1.91455 10.3125V13.4375C1.91455 14.6456 2.89393 15.625 4.10205 15.625C5.31017 15.625 6.28955 14.6456 6.28955 13.4375V10.3125Z" fill="url(#paint12_linear_123_7520)"/>
<path d="M6.28955 10.3125C6.28955 9.10438 5.31017 8.125 4.10205 8.125C2.89393 8.125 1.91455 9.10438 1.91455 10.3125V13.4375C1.91455 14.6456 2.89393 15.625 4.10205 15.625C5.31017 15.625 6.28955 14.6456 6.28955 13.4375V10.3125Z" fill="url(#paint13_radial_123_7520)"/>
<path d="M5.46161 10.5381C5.69375 10.3448 5.68304 9.94925 5.43769 9.6545C5.19235 9.35976 4.80528 9.27747 4.57315 9.47069C4.34101 9.66392 4.35172 10.0595 4.59707 10.3542C4.84241 10.649 5.22948 10.7313 5.46161 10.5381Z" fill="url(#paint14_radial_123_7520)"/>
<path d="M13.5842 10.5381C13.8163 10.3448 13.8056 9.94925 13.5603 9.6545C13.3149 9.35976 12.9278 9.27747 12.6957 9.47069C12.4636 9.66392 12.4743 10.0595 12.7196 10.3542C12.965 10.649 13.352 10.7313 13.5842 10.5381Z" fill="url(#paint15_radial_123_7520)"/>
<defs>
<filter id="filter0_f_123_7520" x="8.39893" y="7.17437" width="2.58496" height="8.79125" filterUnits="userSpaceOnUse" color-interpolation-filters="sRGB">
<feFlood flood-opacity="0" result="BackgroundImageFix"/>
<feBlend mode="normal" in="SourceGraphic" in2="BackgroundImageFix" result="shape"/>
<feGaussianBlur stdDeviation="0.375" result="effect1_foregroundBlur_123_7520"/>
</filter>
<radialGradient id="paint0_radial_123_7520" cx="0" cy="0" r="1" gradientUnits="userSpaceOnUse" gradientTransform="translate(7.51949 8.4374) rotate(101.077) scale(13.2149 10.2196)">
<stop stop-color="#FAF7FC"/>
<stop offset="0.457" stop-color="#D8D0DD"/>
<stop offset="0.708" stop-color="#D0B3E3"/>
<stop offset="1" stop-color="#CFABE4"/>
</radialGradient>
<linearGradient id="paint1_linear_123_7520" x1="-0.7225" y1="12.8906" x2="5.30187" y2="13.7069" gradientUnits="userSpaceOnUse">
<stop offset="0.399" stop-color="#9B969E"/>
<stop offset="1" stop-color="#9A959E" stop-opacity="0"/>
</linearGradient>
<radialGradient id="paint2_radial_123_7520" cx="0" cy="0" r="1" gradientUnits="userSpaceOnUse" gradientTransform="translate(9.92812 14.7125) rotate(-133.794) scale(12.5391 13.5726)">
<stop offset="0.844" stop-color="#9A959E" stop-opacity="0"/>
<stop offset="0.949" stop-color="#949296"/>
</radialGradient>
<radialGradient id="paint3_radial_123_7520" cx="0" cy="0" r="1" gradientUnits="userSpaceOnUse" gradientTransform="translate(11.9394 14.1096) rotate(-155.387) scale(5.36499 13.0447)">
<stop offset="0.022" stop-color="#D1AFE5"/>
<stop offset="1" stop-color="#D1AFE5" stop-opacity="0"/>
</radialGradient>
<radialGradient id="paint4_radial_123_7520" cx="0" cy="0" r="1" gradientUnits="userSpaceOnUse" gradientTransform="translate(10.1794 13.2544) rotate(180) scale(3.46959 9.85563)">
<stop stop-color="#ABA5B0"/>
<stop offset="1" stop-color="#ABA5B0" stop-opacity="0"/>
</radialGradient>
<radialGradient id="paint5_radial_123_7520" cx="0" cy="0" r="1" gradientUnits="userSpaceOnUse" gradientTransform="translate(11.7383 14.662) rotate(-137.153) scale(4.7323 13.039)">
<stop stop-color="#B689D0"/>
<stop offset="1" stop-color="#B689D0" stop-opacity="0"/>
</radialGradient>
<radialGradient id="paint6_radial_123_7520" cx="0" cy="0" r="1" gradientUnits="userSpaceOnUse" gradientTransform="translate(9.03633 7.54312) rotate(140.964) scale(2.19674 4.17856)">
<stop stop-color="#F3F2F4"/>
<stop offset="1" stop-color="#F3F2F4" stop-opacity="0"/>
</radialGradient>
<radialGradient id="paint7_radial_123_7520" cx="0" cy="0" r="1" gradientUnits="userSpaceOnUse" gradientTransform="translate(15.9955 9.37492) rotate(103.51) scale(12.3736 9.569)">
<stop stop-color="#FAF7FC"/>
<stop offset="0.457" stop-color="#D8D0DD"/>
<stop offset="0.708" stop-color="#D0B3E3"/>
<stop offset="1" stop-color="#CFABE4"/>
</radialGradient>
<linearGradient id="paint8_linear_123_7520" x1="7.4025" y1="12.8906" x2="13.34" y2="13.4375" gradientUnits="userSpaceOnUse">
<stop offset="0.212" stop-color="#9B969E"/>
<stop offset="1" stop-color="#9A959E" stop-opacity="0"/>
</linearGradient>
<radialGradient id="paint9_radial_123_7520" cx="0" cy="0" r="1" gradientUnits="userSpaceOnUse" gradientTransform="translate(17.1613 7.54305) rotate(140.964) scale(2.19674 4.17856)">
<stop stop-color="#F3F2F4"/>
<stop offset="1" stop-color="#F3F2F4" stop-opacity="0"/>
</radialGradient>
<linearGradient id="paint10_linear_123_7520" x1="12.1875" y1="8.125" x2="12.1875" y2="15.625" gradientUnits="userSpaceOnUse">
<stop offset="0.354" stop-color="#232224"/>
<stop offset="1" stop-color="#623C86"/>
</linearGradient>
<radialGradient id="paint11_radial_123_7520" cx="0" cy="0" r="1" gradientUnits="userSpaceOnUse" gradientTransform="translate(12.7537 11.4844) rotate(90) scale(4.14062 1.35864)">
<stop offset="0.354" stop-color="#443753"/>
<stop offset="1" stop-color="#433750" stop-opacity="0"/>
</radialGradient>
<linearGradient id="paint12_linear_123_7520" x1="4.10205" y1="8.125" x2="4.10205" y2="15.625" gradientUnits="userSpaceOnUse">
<stop offset="0.354" stop-color="#232224"/>
<stop offset="1" stop-color="#623C86"/>
</linearGradient>
<radialGradient id="paint13_radial_123_7520" cx="0" cy="0" r="1" gradientUnits="userSpaceOnUse" gradientTransform="translate(4.6683 11.4844) rotate(90) scale(4.14062 1.35864)">
<stop offset="0.354" stop-color="#443753"/>
<stop offset="1" stop-color="#433750" stop-opacity="0"/>
</radialGradient>
<radialGradient id="paint14_radial_123_7520" cx="0" cy="0" r="1" gradientUnits="userSpaceOnUse" gradientTransform="translate(4.68735 9.59031) rotate(87.7401) scale(1.48553 1.56336)">
<stop stop-color="white"/>
<stop offset="1" stop-color="#F4F4F4" stop-opacity="0"/>
</radialGradient>
<radialGradient id="paint15_radial_123_7520" cx="0" cy="0" r="1" gradientUnits="userSpaceOnUse" gradientTransform="translate(12.8104 9.58991) rotate(87.7401) scale(1.48553 1.56336)">
<stop stop-color="white"/>
<stop offset="1" stop-color="#F4F4F4" stop-opacity="0"/>
</radialGradient>
</defs>
</svg>
